<svg width="142" height="39" viewBox="0 0 142 39" fill="none" xmlns="http://www.w3.org/2000/svg">
<rect width="142" height="39" rx="5" fill="url(#paint0_linear_35_54)"/>
<path d="M34.98 23.21C33.68 23.21 32.65 22.85 31.89 22.13C31.13 21.4 30.75 20.36 30.75 19.01V16.49C30.75 15.14 31.13 14.105 31.89 13.385C32.65 12.655 33.68 12.29 34.98 12.29C36.27 12.29 37.265 12.645 37.965 13.355C38.675 14.055 39.03 15.02 39.03 16.25V16.34H37.08V16.19C37.08 15.57 36.905 15.06 36.555 14.66C36.215 14.26 35.69 14.06 34.98 14.06C34.28 14.06 33.73 14.275 33.33 14.705C32.93 15.135 32.73 15.72 32.73 16.46V19.04C32.73 19.77 32.93 20.355 33.33 20.795C33.73 21.225 34.28 21.44 34.98 21.44C35.69 21.44 36.215 21.24 36.555 20.84C36.905 20.43 37.08 19.92 37.08 19.31V19.04H39.03V19.25C39.03 20.48 38.675 21.45 37.965 22.16C37.265 22.86 36.27 23.21 34.98 23.21ZM40.7033 23V15.56H42.5633V16.4H42.8333C42.9433 16.1 43.1233 15.88 43.3733 15.74C43.6333 15.6 43.9333 15.53 44.2733 15.53H45.1733V17.21H44.2433C43.7633 17.21 43.3683 17.34 43.0583 17.6C42.7483 17.85 42.5933 18.24 42.5933 18.77V23H40.7033ZM49.7769 23.21C49.0369 23.21 48.3819 23.055 47.8119 22.745C47.2519 22.425 46.8119 21.98 46.4919 21.41C46.1819 20.83 46.0269 20.15 46.0269 19.37V19.19C46.0269 18.41 46.1819 17.735 46.4919 17.165C46.8019 16.585 47.2369 16.14 47.7969 15.83C48.3569 15.51 49.0069 15.35 49.7469 15.35C50.4769 15.35 51.1119 15.515 51.6519 15.845C52.1919 16.165 52.6119 16.615 52.9119 17.195C53.2119 17.765 53.3619 18.43 53.3619 19.19V19.835H47.9469C47.9669 20.345 48.1569 20.76 48.5169 21.08C48.8769 21.4 49.3169 21.56 49.8369 21.56C50.3669 21.56 50.7569 21.445 51.0069 21.215C51.2569 20.985 51.4469 20.73 51.5769 20.45L53.1219 21.26C52.9819 21.52 52.7769 21.805 52.5069 22.115C52.2469 22.415 51.8969 22.675 51.4569 22.895C51.0169 23.105 50.4569 23.21 49.7769 23.21ZM47.9619 18.425H51.4419C51.4019 17.995 51.2269 17.65 50.9169 17.39C50.6169 17.13 50.2219 17 49.7319 17C49.2219 17 48.8169 17.13 48.5169 17.39C48.2169 17.65 48.0319 17.995 47.9619 18.425ZM57.3541 23.21C56.8241 23.21 56.3491 23.12 55.9291 22.94C55.5091 22.75 55.1741 22.48 54.9241 22.13C54.6841 21.77 54.5641 21.335 54.5641 20.825C54.5641 20.315 54.6841 19.89 54.9241 19.55C55.1741 19.2 55.5141 18.94 55.9441 18.77C56.3841 18.59 56.8841 18.5 57.4441 18.5H59.4841V18.08C59.4841 17.73 59.3741 17.445 59.1541 17.225C58.9341 16.995 58.5841 16.88 58.1041 16.88C57.6341 16.88 57.2841 16.99 57.0541 17.21C56.8241 17.42 56.6741 17.695 56.6041 18.035L54.8641 17.45C54.9841 17.07 55.1741 16.725 55.4341 16.415C55.7041 16.095 56.0591 15.84 56.4991 15.65C56.9491 15.45 57.4941 15.35 58.1341 15.35C59.1141 15.35 59.8891 15.595 60.4591 16.085C61.0291 16.575 61.3141 17.285 61.3141 18.215V20.99C61.3141 21.29 61.4541 21.44 61.7341 21.44H62.3341V23H61.0741C60.7041 23 60.3991 22.91 60.1591 22.73C59.9191 22.55 59.7991 22.31 59.7991 22.01V21.995H59.5141C59.4741 22.115 59.3841 22.275 59.2441 22.475C59.1041 22.665 58.8841 22.835 58.5841 22.985C58.2841 23.135 57.8741 23.21 57.3541 23.21ZM57.6841 21.68C58.2141 21.68 58.6441 21.535 58.9741 21.245C59.3141 20.945 59.4841 20.55 59.4841 20.06V19.91H57.5791C57.2291 19.91 56.9541 19.985 56.7541 20.135C56.5541 20.285 56.4541 20.495 56.4541 20.765C56.4541 21.035 56.5591 21.255 56.7691 21.425C56.9791 21.595 57.2841 21.68 57.6841 21.68ZM66.024 23C65.534 23 65.134 22.85 64.824 22.55C64.524 22.24 64.374 21.83 64.374 21.32V17.12H62.514V15.56H64.374V13.25H66.264V15.56H68.304V17.12H66.264V20.99C66.264 21.29 66.404 21.44 66.684 21.44H68.124V23H66.024ZM73.1412 23.21C72.4012 23.21 71.7462 23.055 71.1762 22.745C70.6162 22.425 70.1762 21.98 69.8562 21.41C69.5462 20.83 69.3912 20.15 69.3912 19.37V19.19C69.3912 18.41 69.5462 17.735 69.8562 17.165C70.1662 16.585 70.6012 16.14 71.1612 15.83C71.7212 15.51 72.3712 15.35 73.1112 15.35C73.8412 15.35 74.4762 15.515 75.0162 15.845C75.5562 16.165 75.9762 16.615 76.2762 17.195C76.5762 17.765 76.7262 18.43 76.7262 19.19V19.835H71.3112C71.3312 20.345 71.5212 20.76 71.8812 21.08C72.2412 21.4 72.6812 21.56 73.2012 21.56C73.7312 21.56 74.1212 21.445 74.3712 21.215C74.6212 20.985 74.8112 20.73 74.9412 20.45L76.4862 21.26C76.3462 21.52 76.1412 21.805 75.8712 22.115C75.6112 22.415 75.2612 22.675 74.8212 22.895C74.3812 23.105 73.8212 23.21 73.1412 23.21ZM71.3262 18.425H74.8062C74.7662 17.995 74.5912 17.65 74.2812 17.39C73.9812 17.13 73.5862 17 73.0962 17C72.5862 17 72.1812 17.13 71.8812 17.39C71.5812 17.65 71.3962 17.995 71.3262 18.425ZM82.157 23V12.5H85.922L88.007 21.65H88.277V12.5H90.227V23H86.462L84.377 13.85H84.107V23H82.157ZM95.8058 23.21C95.0658 23.21 94.4008 23.06 93.8108 22.76C93.2208 22.46 92.7558 22.025 92.4158 21.455C92.0758 20.885 91.9058 20.2 91.9058 19.4V19.16C91.9058 18.36 92.0758 17.675 92.4158 17.105C92.7558 16.535 93.2208 16.1 93.8108 15.8C94.4008 15.5 95.0658 15.35 95.8058 15.35C96.5458 15.35 97.2108 15.5 97.8008 15.8C98.3908 16.1 98.8558 16.535 99.1958 17.105C99.5358 17.675 99.7058 18.36 99.7058 19.16V19.4C99.7058 20.2 99.5358 20.885 99.1958 21.455C98.8558 22.025 98.3908 22.46 97.8008 22.76C97.2108 23.06 96.5458 23.21 95.8058 23.21ZM95.8058 21.53C96.3858 21.53 96.8658 21.345 97.2458 20.975C97.6258 20.595 97.8158 20.055 97.8158 19.355V19.205C97.8158 18.505 97.6258 17.97 97.2458 17.6C96.8758 17.22 96.3958 17.03 95.8058 17.03C95.2258 17.03 94.7458 17.22 94.3658 17.6C93.9858 17.97 93.7958 18.505 93.7958 19.205V19.355C93.7958 20.055 93.9858 20.595 94.3658 20.975C94.7458 21.345 95.2258 21.53 95.8058 21.53ZM102.021 23L100.971 15.56H102.846L103.506 21.725H103.776L104.736 15.56H107.766L108.726 21.725H108.996L109.656 15.56H111.531L110.481 23H107.346L106.386 16.835H106.116L105.156 23H102.021Z" fill="#E5E5E5"/>
<defs>
<linearGradient id="paint0_linear_35_54" x1="-208.419" y1="95.55" x2="172.909" y2="-7.4008" gradientUnits="userSpaceOnUse">
<stop offset="0.155224" stop-color="#BFC4EE" stop-opacity="0.0945738"/>
<stop offset="0.587529" stop-color="#C367E6"/>
<stop offset="1" stop-color="#BECEEF" stop-opacity="0"/>
</linearGradient>
</defs>
</svg>
