<svg width="90" height="11" viewBox="0 0 90 11" fill="none" xmlns="http://www.w3.org/2000/svg">
<path d="M0.51 8V1H1.55L4.48 6.13V1H5.49V8H4.45L1.52 2.87V8H0.51ZM6.83609 8V1H11.3261V1.99H7.89609V4.13H10.7761V5.06H7.89609V8H6.83609ZM14.4622 8V1.95H12.5822V1H17.4022V1.95H15.5222V8H14.4622ZM24.4144 8V1H25.5344L26.9844 4.16L28.4344 1H29.5544V8H28.5444V3.02L27.4044 5.52H26.5644L25.4244 3.03V8H24.4144ZM32.5305 8.12C32.1371 8.12 31.8071 8.05333 31.5405 7.92C31.2738 7.78 31.0738 7.59667 30.9405 7.37C30.8071 7.13667 30.7405 6.88333 30.7405 6.61C30.7405 6.12333 30.9171 5.74333 31.2705 5.47C31.6305 5.19667 32.1371 5.06 32.7905 5.06H34.0705V4.95C34.0705 4.20333 33.7238 3.83 33.0305 3.83C32.7438 3.83 32.5005 3.89333 32.3005 4.02C32.1071 4.14 31.9771 4.33667 31.9105 4.61H30.8505C30.9038 4.09 31.1271 3.68 31.5205 3.38C31.9205 3.07333 32.4238 2.92 33.0305 2.92C33.7638 2.92 34.2971 3.1 34.6305 3.46C34.9638 3.82 35.1305 4.31667 35.1305 4.95V8H34.2305L34.1405 7.27H34.0705C33.9238 7.50333 33.7405 7.70333 33.5205 7.87C33.3005 8.03667 32.9705 8.12 32.5305 8.12ZM32.7305 7.23C33.1638 7.23 33.4871 7.1 33.7005 6.84C33.9205 6.57333 34.0405 6.23667 34.0605 5.83H32.9005C32.5205 5.83 32.2505 5.89333 32.0905 6.02C31.9371 6.14 31.8605 6.31 31.8605 6.53C31.8605 6.75 31.9371 6.92333 32.0905 7.05C32.2505 7.17 32.4638 7.23 32.7305 7.23ZM36.7466 8V7.08H37.9566V4.29C37.9566 4.07 37.8499 3.96 37.6366 3.96H36.8466V3.04H38.0366C38.3099 3.04 38.5332 3.12 38.7066 3.28C38.8799 3.43333 38.9666 3.65 38.9666 3.93V4.05H39.0166C39.0899 3.67667 39.2466 3.39667 39.4866 3.21C39.7332 3.01667 40.0899 2.92 40.5566 2.92H41.3266V4.04H40.2466C39.8532 4.04 39.5499 4.17667 39.3366 4.45C39.1232 4.72333 39.0166 5.05 39.0166 5.43V7.08H40.5566V8H36.7466ZM42.9527 8V0.8H44.0127V5.12L45.9127 3.04H47.2427L45.1727 5.24V5.32L47.5127 8H46.2227L44.0127 5.45V8H42.9527ZM51.0288 8.12C50.5488 8.12 50.1254 8.01333 49.7588 7.8C49.3921 7.58 49.1054 7.27667 48.8988 6.89C48.6921 6.50333 48.5888 6.05333 48.5888 5.54C48.5888 5.02 48.6888 4.56333 48.8888 4.17C49.0954 3.77667 49.3821 3.47 49.7488 3.25C50.1221 3.03 50.5521 2.92 51.0388 2.92C51.5188 2.92 51.9321 3.03 52.2788 3.25C52.6254 3.46333 52.8921 3.75 53.0788 4.11C53.2721 4.47 53.3688 4.86667 53.3688 5.3C53.3688 5.36667 53.3688 5.44 53.3688 5.52C53.3688 5.59333 53.3654 5.67667 53.3588 5.77H49.6288C49.6621 6.23 49.8121 6.58 50.0788 6.82C50.3454 7.05333 50.6588 7.17 51.0188 7.17C51.3321 7.17 51.5788 7.10667 51.7588 6.98C51.9454 6.84667 52.0821 6.66667 52.1688 6.44H53.2388C53.1188 6.91333 52.8688 7.31333 52.4888 7.64C52.1088 7.96 51.6221 8.12 51.0288 8.12ZM51.0288 3.84C50.7021 3.84 50.4121 3.94 50.1588 4.14C49.9054 4.33333 49.7421 4.60667 49.6688 4.96H52.3088C52.2821 4.62667 52.1521 4.35667 51.9188 4.15C51.6854 3.94333 51.3888 3.84 51.0288 3.84ZM57.5048 8C57.0182 8 56.6315 7.88333 56.3448 7.65C56.0582 7.41 55.9148 6.98667 55.9148 6.38V3.94H54.6648V3.04H55.4048C55.7448 3.04 55.9448 2.87333 56.0048 2.54L56.1548 1.74H56.9748V3.04H58.9348V3.94H56.9748V6.36C56.9748 6.62 57.0315 6.80333 57.1448 6.91C57.2648 7.01 57.4682 7.06 57.7548 7.06H58.9148V8H57.5048ZM60.6509 10.2V3.04H61.5709L61.6509 3.8H61.7109C61.8443 3.55333 62.0443 3.34667 62.3109 3.18C62.5843 3.00667 62.9076 2.92 63.2809 2.92C63.6676 2.92 64.0209 3.02 64.3409 3.22C64.6609 3.41333 64.9143 3.70333 65.1009 4.09C65.2943 4.47 65.3909 4.94667 65.3909 5.52C65.3909 6.08667 65.2909 6.56333 65.0909 6.95C64.8976 7.33667 64.6343 7.63 64.3009 7.83C63.9676 8.02333 63.5943 8.12 63.1809 8.12C62.8143 8.12 62.5076 8.04667 62.2609 7.9C62.0143 7.75333 61.8309 7.58667 61.7109 7.4V10.2H60.6509ZM63.0009 7.11C63.3743 7.11 63.6843 6.97667 63.9309 6.71C64.1843 6.44333 64.3109 6.04333 64.3109 5.51C64.3109 4.97667 64.1843 4.58 63.9309 4.32C63.6843 4.06 63.3743 3.93 63.0009 3.93C62.6209 3.93 62.3043 4.06333 62.0509 4.33C61.8043 4.59 61.6809 4.98667 61.6809 5.52C61.6809 6.04667 61.8043 6.44333 62.0509 6.71C62.3043 6.97667 62.6209 7.11 63.0009 7.11ZM66.637 8V7.08H68.297V2.05C68.297 1.83 68.1904 1.72 67.977 1.72H66.777V0.8H68.167C68.5537 0.8 68.847 0.903333 69.047 1.11C69.2537 1.31 69.357 1.60333 69.357 1.99V7.08H71.027V8H66.637ZM74.5031 8.12C74.1098 8.12 73.7798 8.05333 73.5131 7.92C73.2465 7.78 73.0465 7.59667 72.9131 7.37C72.7798 7.13667 72.7131 6.88333 72.7131 6.61C72.7131 6.12333 72.8898 5.74333 73.2431 5.47C73.6031 5.19667 74.1098 5.06 74.7631 5.06H76.0431V4.95C76.0431 4.20333 75.6965 3.83 75.0031 3.83C74.7165 3.83 74.4731 3.89333 74.2731 4.02C74.0798 4.14 73.9498 4.33667 73.8831 4.61H72.8231C72.8765 4.09 73.0998 3.68 73.4931 3.38C73.8931 3.07333 74.3965 2.92 75.0031 2.92C75.7365 2.92 76.2698 3.1 76.6031 3.46C76.9365 3.82 77.1031 4.31667 77.1031 4.95V8H76.2031L76.1131 7.27H76.0431C75.8965 7.50333 75.7131 7.70333 75.4931 7.87C75.2731 8.03667 74.9431 8.12 74.5031 8.12ZM74.7031 7.23C75.1365 7.23 75.4598 7.1 75.6731 6.84C75.8931 6.57333 76.0131 6.23667 76.0331 5.83H74.8731C74.4931 5.83 74.2231 5.89333 74.0631 6.02C73.9098 6.14 73.8331 6.31 73.8331 6.53C73.8331 6.75 73.9098 6.92333 74.0631 7.05C74.2231 7.17 74.4365 7.23 74.7031 7.23ZM81.0192 8.12C80.5592 8.12 80.1459 8.01333 79.7792 7.8C79.4192 7.58667 79.1359 7.28667 78.9292 6.9C78.7226 6.50667 78.6192 6.04667 78.6192 5.52C78.6192 4.99333 78.7226 4.53667 78.9292 4.15C79.1426 3.76333 79.4292 3.46333 79.7892 3.25C80.1492 3.03 80.5592 2.92 81.0192 2.92C81.6526 2.92 82.1626 3.08 82.5492 3.4C82.9426 3.71333 83.1926 4.14667 83.2992 4.7H82.1892C82.1226 4.46 81.9859 4.27 81.7792 4.13C81.5792 3.99 81.3226 3.92 81.0092 3.92C80.7826 3.92 80.5659 3.98 80.3592 4.1C80.1592 4.22 79.9959 4.4 79.8692 4.64C79.7492 4.87333 79.6892 5.16667 79.6892 5.52C79.6892 5.86667 79.7492 6.16 79.8692 6.4C79.9959 6.64 80.1592 6.82333 80.3592 6.95C80.5659 7.07 80.7826 7.13 81.0092 7.13C81.3292 7.13 81.5859 7.06 81.7792 6.92C81.9726 6.78 82.1092 6.58667 82.1892 6.34H83.2992C83.1659 6.88667 82.9059 7.32 82.5192 7.64C82.1326 7.96 81.6326 8.12 81.0192 8.12ZM87.0053 8.12C86.5253 8.12 86.102 8.01333 85.7353 7.8C85.3686 7.58 85.082 7.27667 84.8753 6.89C84.6686 6.50333 84.5653 6.05333 84.5653 5.54C84.5653 5.02 84.6653 4.56333 84.8653 4.17C85.072 3.77667 85.3586 3.47 85.7253 3.25C86.0986 3.03 86.5286 2.92 87.0153 2.92C87.4953 2.92 87.9086 3.03 88.2553 3.25C88.602 3.46333 88.8686 3.75 89.0553 4.11C89.2486 4.47 89.3453 4.86667 89.3453 5.3C89.3453 5.36667 89.3453 5.44 89.3453 5.52C89.3453 5.59333 89.342 5.67667 89.3353 5.77H85.6053C85.6386 6.23 85.7886 6.58 86.0553 6.82C86.322 7.05333 86.6353 7.17 86.9953 7.17C87.3086 7.17 87.5553 7.10667 87.7353 6.98C87.922 6.84667 88.0586 6.66667 88.1453 6.44H89.2153C89.0953 6.91333 88.8453 7.31333 88.4653 7.64C88.0853 7.96 87.5986 8.12 87.0053 8.12ZM87.0053 3.84C86.6786 3.84 86.3886 3.94 86.1353 4.14C85.882 4.33333 85.7186 4.60667 85.6453 4.96H88.2853C88.2586 4.62667 88.1286 4.35667 87.8953 4.15C87.662 3.94333 87.3653 3.84 87.0053 3.84Z" fill="url(#paint0_linear_26_2)"/>
<defs>
<linearGradient id="paint0_linear_26_2" x1="45" y1="-2" x2="45" y2="11" gradientUnits="userSpaceOnUse">
<stop stop-color="#9C76B8"/>
<stop offset="1" stop-color="#9C76B8" stop-opacity="0"/>
</linearGradient>
</defs>
</svg>
