<svg width="157" height="19" viewBox="0 0 157 19" fill="none" xmlns="http://www.w3.org/2000/svg">
<path d="M6.22 15.28C5.16667 15.28 4.23333 15.0933 3.42 14.72C2.60667 14.3467 1.96667 13.8 1.5 13.08C1.04667 12.3467 0.82 11.46 0.82 10.42V9.92H2.96V10.42C2.96 11.4067 3.25333 12.1467 3.84 12.64C4.44 13.1333 5.23333 13.38 6.22 13.38C7.22 13.38 7.97333 13.1733 8.48 12.76C8.98667 12.3333 9.24 11.7867 9.24 11.12C9.24 10.68 9.12 10.32 8.88 10.04C8.64 9.76 8.3 9.54 7.86 9.38C7.42 9.20667 6.89333 9.04667 6.28 8.9L5.54 8.72C4.64667 8.50667 3.86667 8.24667 3.2 7.94C2.54667 7.62 2.04 7.2 1.68 6.68C1.32 6.16 1.14 5.49333 1.14 4.68C1.14 3.85333 1.34 3.14667 1.74 2.56C2.15333 1.97333 2.72 1.52 3.44 1.2C4.16 0.879999 5.00667 0.719999 5.98 0.719999C6.95333 0.719999 7.82 0.886666 8.58 1.22C9.35333 1.55333 9.96 2.04667 10.4 2.7C10.84 3.35333 11.06 4.17333 11.06 5.16V5.88H8.92V5.16C8.92 4.56 8.79333 4.07333 8.54 3.7C8.3 3.32667 7.96 3.05333 7.52 2.88C7.08 2.70667 6.56667 2.62 5.98 2.62C5.12667 2.62 4.46 2.8 3.98 3.16C3.51333 3.50667 3.28 3.99333 3.28 4.62C3.28 5.04667 3.38 5.4 3.58 5.68C3.79333 5.94667 4.1 6.16667 4.5 6.34C4.9 6.51333 5.4 6.66667 6 6.8L6.74 6.98C7.64667 7.18 8.44667 7.44 9.14 7.76C9.83333 8.06667 10.38 8.48667 10.78 9.02C11.18 9.55333 11.38 10.24 11.38 11.08C11.38 11.92 11.1667 12.6533 10.74 13.28C10.3267 13.9067 9.73333 14.4 8.96 14.76C8.18667 15.1067 7.27333 15.28 6.22 15.28ZM17.4875 15.18C16.7408 15.18 16.0742 15.0133 15.4875 14.68C14.9008 14.3467 14.4408 13.8733 14.1075 13.26C13.7742 12.6467 13.6075 11.9133 13.6075 11.06V5.14H15.6675V10.92C15.6675 11.7733 15.8808 12.4067 16.3075 12.82C16.7342 13.22 17.3275 13.42 18.0875 13.42C18.9275 13.42 19.6008 13.14 20.1075 12.58C20.6275 12.0067 20.8875 11.1867 20.8875 10.12V5.14H22.9475V15H20.9275V13.52H20.6075C20.4208 13.92 20.0875 14.3 19.6075 14.66C19.1275 15.0067 18.4208 15.18 17.4875 15.18ZM25.9927 19V5.14H28.0127V6.56H28.3327C28.586 6.12 28.966 5.72667 29.4727 5.38C29.9927 5.03333 30.7327 4.86 31.6927 4.86C32.5193 4.86 33.2727 5.06 33.9527 5.46C34.646 5.86 35.1993 6.44 35.6127 7.2C36.0393 7.94667 36.2527 8.85333 36.2527 9.92V10.22C36.2527 11.2867 36.046 12.2 35.6327 12.96C35.2193 13.7067 34.666 14.28 33.9727 14.68C33.2793 15.08 32.5193 15.28 31.6927 15.28C31.0527 15.28 30.5127 15.2 30.0727 15.04C29.6327 14.88 29.2793 14.68 29.0127 14.44C28.746 14.1867 28.5327 13.9267 28.3727 13.66H28.0527V19H25.9927ZM31.0927 13.48C31.9993 13.48 32.7393 13.1933 33.3127 12.62C33.886 12.0467 34.1727 11.2267 34.1727 10.16V9.98C34.1727 8.92667 33.8793 8.11333 33.2927 7.54C32.7193 6.96667 31.986 6.68 31.0927 6.68C30.2127 6.68 29.4793 6.96667 28.8927 7.54C28.3193 8.11333 28.0327 8.92667 28.0327 9.98V10.16C28.0327 11.2267 28.3193 12.0467 28.8927 12.62C29.4793 13.1933 30.2127 13.48 31.0927 13.48ZM43.3252 15.28C42.3252 15.28 41.4518 15.0733 40.7052 14.66C39.9585 14.2333 39.3718 13.64 38.9452 12.88C38.5318 12.1067 38.3252 11.2133 38.3252 10.2V9.96C38.3252 8.93333 38.5318 8.04 38.9452 7.28C39.3585 6.50667 39.9318 5.91333 40.6652 5.5C41.4118 5.07333 42.2718 4.86 43.2452 4.86C44.1918 4.86 45.0185 5.07333 45.7252 5.5C46.4452 5.91333 47.0052 6.49333 47.4052 7.24C47.8052 7.98667 48.0052 8.86 48.0052 9.86V10.64H40.4252C40.4518 11.5067 40.7385 12.2 41.2852 12.72C41.8452 13.2267 42.5385 13.48 43.3652 13.48C44.1385 13.48 44.7185 13.3067 45.1052 12.96C45.5052 12.6133 45.8118 12.2133 46.0252 11.76L47.7252 12.64C47.5385 13.0133 47.2652 13.4067 46.9052 13.82C46.5585 14.2333 46.0985 14.58 45.5252 14.86C44.9518 15.14 44.2185 15.28 43.3252 15.28ZM40.4452 9.06H45.9052C45.8518 8.31333 45.5852 7.73333 45.1052 7.32C44.6252 6.89333 43.9985 6.68 43.2252 6.68C42.4518 6.68 41.8185 6.89333 41.3252 7.32C40.8452 7.73333 40.5518 8.31333 40.4452 9.06ZM50.4848 15V5.14H52.5048V6.3H52.8248C52.9848 5.88667 53.2382 5.58667 53.5848 5.4C53.9448 5.2 54.3848 5.1 54.9048 5.1H56.0848V6.96H54.8248C54.1582 6.96 53.6115 7.14667 53.1848 7.52C52.7582 7.88 52.5448 8.44 52.5448 9.2V15H50.4848ZM63.2569 15V0.999999H65.4169V7H71.2969V0.999999H73.4569V15H71.2969V8.96H65.4169V15H63.2569ZM81.0619 15.28C80.0752 15.28 79.1952 15.08 78.4219 14.68C77.6619 14.2667 77.0619 13.68 76.6219 12.92C76.1819 12.16 75.9619 11.26 75.9619 10.22V9.92C75.9619 8.88 76.1819 7.98667 76.6219 7.24C77.0619 6.48 77.6619 5.89333 78.4219 5.48C79.1952 5.06667 80.0752 4.86 81.0619 4.86C82.0485 4.86 82.9285 5.06667 83.7019 5.48C84.4752 5.89333 85.0819 6.48 85.5219 7.24C85.9619 7.98667 86.1819 8.88 86.1819 9.92V10.22C86.1819 11.26 85.9619 12.16 85.5219 12.92C85.0819 13.68 84.4752 14.2667 83.7019 14.68C82.9285 15.08 82.0485 15.28 81.0619 15.28ZM81.0619 13.44C81.9685 13.44 82.7019 13.1533 83.2619 12.58C83.8352 11.9933 84.1219 11.1867 84.1219 10.16V9.98C84.1219 8.95333 83.8419 8.15333 83.2819 7.58C82.7219 6.99333 81.9819 6.7 81.0619 6.7C80.1685 6.7 79.4352 6.99333 78.8619 7.58C78.3019 8.15333 78.0219 8.95333 78.0219 9.98V10.16C78.0219 11.1867 78.3019 11.9933 78.8619 12.58C79.4352 13.1533 80.1685 13.44 81.0619 13.44ZM92.0755 15C91.4755 15 90.9955 14.82 90.6355 14.46C90.2888 14.1 90.1155 13.62 90.1155 13.02V6.88H87.3955V5.14H90.1155V1.88H92.1755V5.14H95.1155V6.88H92.1755V12.66C92.1755 13.06 92.3621 13.26 92.7355 13.26H94.7955V15H92.0755ZM102.053 15V13.08H103.933V2.92H102.053V0.999999H107.653C109.52 0.999999 110.947 1.47333 111.933 2.42C112.933 3.36667 113.433 4.79333 113.433 6.7V9.32C113.433 11.2267 112.933 12.6533 111.933 13.6C110.947 14.5333 109.52 15 107.653 15H102.053ZM106.113 13.04H107.673C108.887 13.04 109.787 12.7333 110.373 12.12C110.96 11.5067 111.253 10.5933 111.253 9.38V6.62C111.253 5.39333 110.96 4.48 110.373 3.88C109.787 3.28 108.887 2.98 107.673 2.98H106.113V13.04ZM115.934 15V5.14H117.954V6.3H118.274C118.434 5.88667 118.687 5.58667 119.034 5.4C119.394 5.2 119.834 5.1 120.354 5.1H121.534V6.96H120.274C119.607 6.96 119.061 7.14667 118.634 7.52C118.207 7.88 117.994 8.44 117.994 9.2V15H115.934ZM127.937 15.28C126.95 15.28 126.07 15.08 125.297 14.68C124.537 14.2667 123.937 13.68 123.497 12.92C123.057 12.16 122.837 11.26 122.837 10.22V9.92C122.837 8.88 123.057 7.98667 123.497 7.24C123.937 6.48 124.537 5.89333 125.297 5.48C126.07 5.06667 126.95 4.86 127.937 4.86C128.924 4.86 129.804 5.06667 130.577 5.48C131.35 5.89333 131.957 6.48 132.397 7.24C132.837 7.98667 133.057 8.88 133.057 9.92V10.22C133.057 11.26 132.837 12.16 132.397 12.92C131.957 13.68 131.35 14.2667 130.577 14.68C129.804 15.08 128.924 15.28 127.937 15.28ZM127.937 13.44C128.844 13.44 129.577 13.1533 130.137 12.58C130.71 11.9933 130.997 11.1867 130.997 10.16V9.98C130.997 8.95333 130.717 8.15333 130.157 7.58C129.597 6.99333 128.857 6.7 127.937 6.7C127.044 6.7 126.31 6.99333 125.737 7.58C125.177 8.15333 124.897 8.95333 124.897 9.98V10.16C124.897 11.1867 125.177 11.9933 125.737 12.58C126.31 13.1533 127.044 13.44 127.937 13.44ZM135.622 19V5.14H137.642V6.56H137.962C138.215 6.12 138.595 5.72667 139.102 5.38C139.622 5.03333 140.362 4.86 141.322 4.86C142.148 4.86 142.902 5.06 143.582 5.46C144.275 5.86 144.828 6.44 145.242 7.2C145.668 7.94667 145.882 8.85333 145.882 9.92V10.22C145.882 11.2867 145.675 12.2 145.262 12.96C144.848 13.7067 144.295 14.28 143.602 14.68C142.908 15.08 142.148 15.28 141.322 15.28C140.682 15.28 140.142 15.2 139.702 15.04C139.262 14.88 138.908 14.68 138.642 14.44C138.375 14.1867 138.162 13.9267 138.002 13.66H137.682V19H135.622ZM140.722 13.48C141.628 13.48 142.368 13.1933 142.942 12.62C143.515 12.0467 143.802 11.2267 143.802 10.16V9.98C143.802 8.92667 143.508 8.11333 142.922 7.54C142.348 6.96667 141.615 6.68 140.722 6.68C139.842 6.68 139.108 6.96667 138.522 7.54C137.948 8.11333 137.662 8.92667 137.662 9.98V10.16C137.662 11.2267 137.948 12.0467 138.522 12.62C139.108 13.1933 139.842 13.48 140.722 13.48ZM152.474 15.28C151.221 15.28 150.181 15 149.354 14.44C148.527 13.88 148.021 13.0333 147.834 11.9L149.754 11.44C149.861 11.9867 150.041 12.42 150.294 12.74C150.547 13.06 150.861 13.2867 151.234 13.42C151.621 13.5533 152.034 13.62 152.474 13.62C153.127 13.62 153.627 13.4933 153.974 13.24C154.334 12.9867 154.514 12.66 154.514 12.26C154.514 11.86 154.347 11.5667 154.014 11.38C153.681 11.1933 153.187 11.04 152.534 10.92L151.854 10.8C151.187 10.68 150.581 10.5067 150.034 10.28C149.487 10.0533 149.054 9.74 148.734 9.34C148.414 8.94 148.254 8.42667 148.254 7.8C148.254 6.86667 148.601 6.14667 149.294 5.64C149.987 5.12 150.907 4.86 152.054 4.86C153.161 4.86 154.067 5.11333 154.774 5.62C155.494 6.11333 155.961 6.78667 156.174 7.64L154.254 8.18C154.134 7.58 153.881 7.16 153.494 6.92C153.107 6.66667 152.627 6.54 152.054 6.54C151.494 6.54 151.054 6.64667 150.734 6.86C150.414 7.06 150.254 7.34667 150.254 7.72C150.254 8.12 150.407 8.41333 150.714 8.6C151.034 8.78667 151.461 8.92667 151.994 9.02L152.694 9.14C153.401 9.26 154.047 9.42667 154.634 9.64C155.221 9.85333 155.681 10.16 156.014 10.56C156.361 10.96 156.534 11.4933 156.534 12.16C156.534 13.1467 156.167 13.9133 155.434 14.46C154.701 15.0067 153.714 15.28 152.474 15.28Z" fill="white"/>
</svg>
