<svg width="13" height="17" viewBox="0 0 13 17" fill="none" xmlns="http://www.w3.org/2000/svg">
<path d="M11.993 8.29934L11.9928 8.299C11.6633 7.57526 11.1839 6.92478 10.5839 6.38865L10.5835 6.3883L10.4346 6.25493L10.3708 6.43345C10.3707 6.43366 10.3706 6.43386 10.3706 6.43407C10.1929 6.93458 9.87558 7.4216 9.45318 7.88072L9.44663 7.88783L9.44656 7.88776C9.31054 8.03 9.15023 8.0677 9.05369 8.07627C8.93871 8.08647 8.75866 8.06638 8.60151 7.92809C8.45316 7.79972 8.38383 7.61457 8.39398 7.43627L8.39415 7.43326C8.45466 6.47268 8.16203 5.34414 7.46277 4.06418L7.46235 4.06342C6.90286 3.03505 6.13079 2.24045 5.16853 1.68626C5.16847 1.68622 5.16842 1.68619 5.16837 1.68616L4.96342 1.56848L4.97373 1.78807L4.97374 1.78812C5.0038 2.42962 4.92928 3.02412 4.73269 3.53798C4.50926 4.12274 4.18865 4.66484 3.78031 5.15014L3.78009 5.1504C3.49628 5.48725 3.1748 5.79169 2.82179 6.05809L2.82065 6.05896C2.10218 6.59794 1.51895 7.28773 1.11371 8.07604C0.710353 8.87026 0.500535 9.74392 0.5 10.6292L11.993 8.29934ZM11.993 8.29934C12.3307 9.03961 12.5 9.82302 12.5 10.631L12.5 10.632C12.5016 11.4047 12.342 12.17 12.0305 12.8812L12.0303 12.8816C11.73 13.5689 11.2989 14.1887 10.7473 14.7203L10.746 14.7216C10.1999 15.2518 9.55254 15.6737 8.8398 15.9633L8.83949 15.9634C8.0985 16.265 7.31313 16.4185 6.49999 16.4185C5.68688 16.4185 4.90185 16.265 4.16139 15.9619L4.16074 15.9617M11.993 8.29934L4.16074 15.9617M4.16074 15.9617C3.44637 15.6705 2.80565 15.2515 2.25267 14.7185C1.70673 14.1915 1.27121 13.5669 0.969591 12.8796M4.16074 15.9617L0.969591 12.8796M2.44081 14.5658L2.44048 14.5655C1.35765 13.5166 0.755681 12.1193 0.755681 10.631C0.755681 9.76793 0.955421 8.93874 1.34748 8.16949C1.73028 7.4165 2.29793 6.7469 2.9853 6.23196L2.98605 6.2314C3.35538 5.95579 3.6901 5.63912 3.98347 5.28796L3.98431 5.28696C4.41076 4.77924 4.74381 4.2149 4.97462 3.61051C5.06545 3.37118 5.13141 3.12369 5.17157 2.87175L5.3162 1.96425L5.9996 2.57861C6.4911 3.02044 6.89759 3.54919 7.23328 4.15786L7.23416 4.15947C7.87508 5.33177 8.20402 6.43268 8.14014 7.41776L8.14011 7.41822C8.13196 7.54199 8.15263 7.66625 8.20096 7.78185C8.24931 7.8975 8.32435 8.00203 8.42135 8.08707L8.4224 8.08798C8.50604 8.16172 8.60454 8.21908 8.71242 8.25615C8.82032 8.29322 8.93502 8.30909 9.04973 8.30263L9.05309 8.30244L9.05309 8.30246C9.28626 8.29091 9.49683 8.1916 9.65121 8.02405C9.87926 7.77466 10.073 7.52401 10.2327 7.27246L10.6075 6.68182L11.045 7.22769C11.3294 7.5826 11.5673 7.96947 11.7562 8.38569L2.44081 14.5658ZM2.44081 14.5658C3.52761 15.6165 4.96963 16.1912 6.49999 16.1912C8.03035 16.1912 9.47237 15.6165 10.5592 14.5658M2.44081 14.5658H10.5592M0.969591 12.8796C0.657629 12.1665 0.500037 11.4113 0.5 10.6294L0.969591 12.8796ZM10.5592 14.5658C11.6425 13.5184 12.2443 12.1191 12.2443 10.631C12.2443 9.85282 12.0793 9.09581 11.7564 8.38618L10.5592 14.5658Z" stroke="white"/>
</svg>
